<svg version="1.1" xmlns="http://www.w3.org/2000/svg" xmlns:xlink="http://www.w3.org/1999/xlink" width="232" height="212"><defs/><g transform="translate(16,16) scale(1,1)"><path fill="none" stroke="rgb(201,172,230)" paint-order="fill stroke markers" d=" M 92.71535603232051 13.112359141823063 L 67.96878845360939 57.65618078350311" stroke-opacity="1" stroke-linejoin="round" stroke-miterlimit="10" stroke-width="18"/><path fill="rgb(201,172,230)" stroke="none" paint-order="stroke fill markers" d=" M 52.511934080882774 42.521146280683126 L 50.48564293117863 89.12584272387846 L 88.98517477555738 62.78405777772458 Z" fill-opacity="1"/><path fill="none" stroke="rgb(201,172,230)" paint-order="fill stroke markers" d=" M 107.28464396767949 13.112359141823063 L 132.0312115463906 57.65618078350311" stroke-opacity="1" stroke-linejoin="round" stroke-miterlimit="10" stroke-width="18"/><path fill="rgb(201,172,230)" stroke="none" paint-order="stroke fill markers" d=" M 111.01482522444262 62.78405777772458 L 149.51435706882137 89.12584272387846 L 147.48806591911722 42.521146280683126 Z" fill-opacity="1"/><path fill="none" stroke="rgb(255,75,0)" paint-order="fill stroke markers" d=" M 7.284643967679486 166.88764085817695 L 32.031211546390615 122.34381921649688" stroke-opacity="1" stroke-linejoin="round" stroke-miterlimit="10" stroke-width="18"/><path fill="rgb(255,75,0)" stroke="none" paint-order="stroke fill markers" d=" M 47.48806591911722 137.47885371931687 L 49.51435706882137 90.87415727612154 L 11.014825224442617 117.21594222227542 Z" fill-opacity="1"/><path fill="none" stroke="rgb(255,75,0)" paint-order="fill stroke markers" d=" M 192.71535603232053 166.88764085817695 L 167.9687884536094 122.34381921649688" stroke-opacity="1" stroke-linejoin="round" stroke-miterlimit="10" stroke-width="18"/><path fill="rgb(255,75,0)" stroke="none" paint-order="stroke fill markers" d=" M 188.98517477555737 117.21594222227543 L 150.48564293117863 90.87415727612154 L 152.51193408088275 137.47885371931687 Z" fill-opacity="1"/><path fill="rgb(204,204,204)" stroke="none" paint-order="stroke fill markers" d=" M 115 0 L 114.95376000599691 1.176886435917674 L 114.81532510892707 2.346516975603463 L 114.58554880596515 3.5016804578385807 L 114.2658477444273 4.635254915624211 L 113.8581929876693 5.740251485476347 L 113.36509786282552 6.809857496093201 L 112.78960246531139 7.8374784707392315 L 112.13525491562422 8.816778784387097 L 111.40608948400046 9.741720724952755 L 110.60660171779821 10.606601717798211 L 109.74172072495276 11.406089484000464 L 108.8167787843871 12.135254915624213 L 107.83747847073923 12.789602465311383 L 106.8098574960932 13.365097862825516 L 105.74025148547635 13.858192987669302 L 104.63525491562422 14.265847744427303 L 103.50168045783859 14.585548805965148 L 102.34651697560346 14.815325108927066 L 101.17688643591768 14.95376000599692 L 100 15 L 98.82311356408232 14.95376000599692 L 97.65348302439654 14.815325108927066 L 96.49831954216143 14.58554880596515 L 95.36474508437578 14.265847744427305 L 94.25974851452365 13.858192987669302 L 93.1901425039068 13.365097862825518 L 92.16252152926077 12.789602465311384 L 91.1832212156129 12.135254915624213 L 90.25827927504724 11.406089484000466 L 89.39339828220179 10.606601717798213 L 88.59391051599954 9.741720724952756 L 87.86474508437578 8.816778784387099 L 87.21039753468861 7.837478470739233 L 86.63490213717448 6.809857496093203 L 86.1418070123307 5.740251485476349 L 85.7341522555727 4.635254915624213 L 85.41445119403485 3.501680457838583 L 85.18467489107293 2.3465169756034645 L 85.04623999400309 1.176886435917676 L 85 1.83697019872103e-15 L 85.04623999400309 -1.1768864359176723 L 85.18467489107293 -2.346516975603461 L 85.41445119403485 -3.5016804578385794 L 85.7341522555727 -4.635254915624209 L 86.1418070123307 -5.740251485476345 L 86.63490213717448 -6.8098574960932 L 87.21039753468861 -7.837478470739231 L 87.86474508437578 -8.816778784387095 L 88.59391051599954 -9.741720724952753 L 89.39339828220179 -10.606601717798211 L 90.25827927504724 -11.406089484000459 L 91.1832212156129 -12.13525491562421 L 92.16252152926077 -12.789602465311386 L 93.19014250390681 -13.365097862825523 L 94.25974851452366 -13.858192987669307 L 95.36474508437581 -14.265847744427312 L 96.49831954216145 -14.585548805965157 L 97.65348302439658 -14.815325108927071 L 98.82311356408238 -14.953760005996923 L 100.00000000000006 -15 L 101.17688643591774 -14.953760005996914 L 102.34651697560352 -14.815325108927057 L 103.50168045783865 -14.585548805965134 L 104.63525491562429 -14.26584774442728 L 105.74025148547642 -13.85819298766927 L 106.80985749609329 -13.365097862825477 L 107.83747847073931 -12.789602465311333 L 108.81677878438718 -12.13525491562415 L 109.74172072495284 -11.406089484000393 L 110.6066017177983 -10.60660171779813 L 111.40608948400055 -9.741720724952662 L 112.13525491562429 -8.816778784386992 L 112.78960246531145 -7.837478470739117 L 113.36509786282558 -6.809857496093075 L 113.85819298766936 -5.740251485476208 L 114.26584774442735 -4.6352549156240626 L 114.58554880596519 -3.5016804578384226 L 114.8153251089271 -2.3465169756032958 L 114.95376000599694 -1.1768864359174984 Z" fill-opacity="1"/><path fill="rgb(204,204,204)" stroke="none" paint-order="stroke fill markers" d=" M 15 180 L 14.95376000599692 181.17688643591768 L 14.815325108927066 182.34651697560346 L 14.585548805965148 183.50168045783857 L 14.265847744427303 184.63525491562422 L 13.858192987669302 185.74025148547634 L 13.365097862825518 186.8098574960932 L 12.789602465311383 187.83747847073923 L 12.135254915624213 188.8167787843871 L 11.406089484000464 189.74172072495276 L 10.606601717798213 190.6066017177982 L 9.741720724952755 191.40608948400046 L 8.816778784387097 192.13525491562422 L 7.837478470739233 192.7896024653114 L 6.809857496093202 193.3650978628255 L 5.740251485476348 193.8581929876693 L 4.635254915624212 194.2658477444273 L 3.501680457838582 194.58554880596515 L 2.346516975603464 194.81532510892706 L 1.176886435917675 194.9537600059969 L 9.18485099360515e-16 195 L -1.1768864359176732 194.9537600059969 L -2.3465169756034623 194.81532510892706 L -3.50168045783858 194.58554880596515 L -4.63525491562421 194.2658477444273 L -5.740251485476346 193.8581929876693 L -6.8098574960932 193.3650978628255 L -7.8374784707392315 192.7896024653114 L -8.816778784387095 192.13525491562422 L -9.741720724952753 191.40608948400046 L -10.606601717798211 190.6066017177982 L -11.406089484000464 189.74172072495276 L -12.13525491562421 188.8167787843871 L -12.789602465311383 187.83747847073923 L -13.365097862825516 186.8098574960932 L -13.858192987669302 185.74025148547634 L -14.265847744427303 184.63525491562422 L -14.585548805965148 183.50168045783857 L -14.815325108927064 182.34651697560346 L -14.95376000599692 181.17688643591768 L -15 180 L -14.95376000599692 178.82311356408232 L -14.815325108927066 177.65348302439654 L -14.58554880596515 176.49831954216143 L -14.265847744427305 175.36474508437578 L -13.858192987669304 174.25974851452366 L -13.365097862825518 173.1901425039068 L -12.789602465311384 172.16252152926077 L -12.135254915624213 171.18322121561292 L -11.406089484000466 170.25827927504724 L -10.606601717798215 169.3933982822018 L -9.741720724952762 168.59391051599954 L -8.816778784387099 167.86474508437578 L -7.837478470739229 167.2103975346886 L -6.809857496093192 166.63490213717446 L -5.74025148547633 166.1418070123307 L -4.635254915624189 165.7341522555727 L -3.5016804578385514 165.41445119403485 L -2.3465169756034263 165.18467489107292 L -1.1768864359176305 165.0462399940031 L 5.0535249883925967e-14 165 L 1.1768864359177311 165.0462399940031 L 2.346516975603526 165.18467489107294 L 3.5016804578386496 165.41445119403485 L 4.635254915624285 165.73415225557272 L 5.740251485476424 166.14180701233073 L 6.809857496093282 166.63490213717452 L 7.837478470739315 167.21039753468867 L 8.81677878438718 167.86474508437584 L 9.741720724952838 168.5939105159996 L 10.606601717798295 169.39339828220187 L 11.406089484000544 170.25827927504733 L 12.135254915624289 171.183221215613 L 12.789602465311454 172.16252152926089 L 13.365097862825584 173.1901425039069 L 13.858192987669359 174.25974851452378 L 14.26584774442735 175.36474508437593 L 14.585548805965187 176.49831954216157 L 14.815325108927093 177.6534830243967 L 14.953760005996934 178.8231135640825 Z" fill-opacity="1"/><path fill="rgb(204,204,204)" stroke="none" paint-order="stroke fill markers" d=" M 215 180 L 214.9537600059969 181.17688643591768 L 214.81532510892706 182.34651697560346 L 214.58554880596515 183.50168045783857 L 214.2658477444273 184.63525491562422 L 213.8581929876693 185.74025148547634 L 213.3650978628255 186.8098574960932 L 212.7896024653114 187.83747847073923 L 212.13525491562422 188.8167787843871 L 211.40608948400046 189.74172072495276 L 210.6066017177982 190.6066017177982 L 209.74172072495276 191.40608948400046 L 208.8167787843871 192.13525491562422 L 207.83747847073923 192.7896024653114 L 206.8098574960932 193.3650978628255 L 205.74025148547634 193.8581929876693 L 204.63525491562422 194.2658477444273 L 203.50168045783857 194.58554880596515 L 202.34651697560346 194.81532510892706 L 201.17688643591768 194.9537600059969 L 200 195 L 198.82311356408232 194.9537600059969 L 197.65348302439654 194.81532510892706 L 196.49831954216143 194.58554880596515 L 195.36474508437578 194.2658477444273 L 194.25974851452366 193.8581929876693 L 193.1901425039068 193.3650978628255 L 192.16252152926077 192.7896024653114 L 191.18322121561292 192.13525491562422 L 190.25827927504724 191.40608948400046 L 189.3933982822018 190.6066017177982 L 188.59391051599954 189.74172072495276 L 187.86474508437578 188.8167787843871 L 187.2103975346886 187.83747847073923 L 186.6349021371745 186.8098574960932 L 186.1418070123307 185.74025148547634 L 185.7341522555727 184.63525491562422 L 185.41445119403485 183.50168045783857 L 185.18467489107294 182.34651697560346 L 185.0462399940031 181.17688643591768 L 185 180 L 185.0462399940031 178.82311356408232 L 185.18467489107294 177.65348302439654 L 185.41445119403485 176.49831954216143 L 185.7341522555727 175.36474508437578 L 186.1418070123307 174.25974851452366 L 186.6349021371745 173.1901425039068 L 187.2103975346886 172.16252152926077 L 187.86474508437578 171.18322121561292 L 188.59391051599954 170.25827927504724 L 189.3933982822018 169.3933982822018 L 190.25827927504724 168.59391051599954 L 191.1832212156129 167.86474508437578 L 192.16252152926077 167.2103975346886 L 193.1901425039068 166.63490213717446 L 194.25974851452366 166.1418070123307 L 195.3647450843758 165.7341522555727 L 196.49831954216145 165.41445119403485 L 197.65348302439656 165.18467489107292 L 198.82311356408238 165.0462399940031 L 200.00000000000006 165 L 201.17688643591774 165.0462399940031 L 202.34651697560352 165.18467489107294 L 203.50168045783866 165.41445119403485 L 204.63525491562427 165.73415225557272 L 205.74025148547642 166.14180701233073 L 206.8098574960933 166.63490213717452 L 207.8374784707393 167.21039753468867 L 208.81677878438717 167.86474508437584 L 209.74172072495284 168.5939105159996 L 210.6066017177983 169.39339828220187 L 211.40608948400055 170.25827927504733 L 212.1352549156243 171.183221215613 L 212.78960246531145 172.16252152926089 L 213.3650978628256 173.1901425039069 L 213.85819298766936 174.25974851452378 L 214.26584774442736 175.36474508437593 L 214.58554880596517 176.49831954216157 L 214.81532510892708 177.6534830243967 L 214.95376000599694 178.8231135640825 Z" fill-opacity="1"/><path fill="rgb(153,153,153)" stroke="none" paint-order="stroke fill markers" d=" M 51 90 L 50.99691733373313 90.07845909572785 L 50.987688340595135 90.15643446504023 L 50.972369920397675 90.2334453638559 L 50.951056516295154 90.30901699437494 L 50.923879532511286 90.38268343236508 L 50.89100652418837 90.45399049973955 L 50.85264016435409 90.52249856471595 L 50.80901699437495 90.58778525229248 L 50.76040596560003 90.64944804833019 L 50.707106781186546 90.70710678118655 L 50.649448048330186 90.76040596560003 L 50.58778525229247 90.80901699437494 L 50.522498564715946 90.85264016435409 L 50.45399049973955 90.89100652418837 L 50.38268343236509 90.9238795325113 L 50.30901699437495 90.95105651629515 L 50.23344536385591 90.97236992039768 L 50.15643446504023 90.98768834059514 L 50.078459095727844 90.99691733373312 L 50 91 L 49.921540904272156 90.99691733373312 L 49.84356553495977 90.98768834059514 L 49.76655463614409 90.97236992039768 L 49.69098300562505 90.95105651629515 L 49.61731656763491 90.9238795325113 L 49.54600950026045 90.89100652418837 L 49.477501435284054 90.8526401643541 L 49.41221474770753 90.80901699437494 L 49.350551951669814 90.76040596560003 L 49.292893218813454 90.70710678118655 L 49.23959403439997 90.64944804833019 L 49.19098300562505 90.58778525229248 L 49.14735983564591 90.52249856471595 L 49.10899347581163 90.45399049973955 L 49.076120467488714 90.38268343236508 L 49.048943483704846 90.30901699437494 L 49.027630079602325 90.2334453638559 L 49.012311659404865 90.15643446504023 L 49.00308266626687 90.07845909572785 L 49 90 L 49.00308266626687 89.92154090427215 L 49.012311659404865 89.84356553495977 L 49.027630079602325 89.7665546361441 L 49.048943483704846 89.69098300562506 L 49.076120467488714 89.61731656763492 L 49.10899347581163 89.54600950026045 L 49.14735983564591 89.47750143528405 L 49.19098300562505 89.41221474770752 L 49.23959403439997 89.35055195166981 L 49.292893218813454 89.29289321881345 L 49.350551951669814 89.23959403439997 L 49.41221474770753 89.19098300562506 L 49.477501435284054 89.1473598356459 L 49.54600950026045 89.10899347581163 L 49.61731656763491 89.0761204674887 L 49.69098300562506 89.04894348370485 L 49.76655463614409 89.02763007960232 L 49.84356553495977 89.01231165940486 L 49.921540904272156 89.00308266626688 L 50 89 L 50.07845909572785 89.00308266626688 L 50.156434465040235 89.01231165940486 L 50.23344536385591 89.02763007960232 L 50.30901699437495 89.04894348370485 L 50.3826834323651 89.07612046748872 L 50.453990499739554 89.10899347581163 L 50.52249856471595 89.14735983564591 L 50.58778525229248 89.19098300562506 L 50.649448048330186 89.23959403439997 L 50.70710678118655 89.29289321881346 L 50.760405965600036 89.35055195166983 L 50.80901699437495 89.41221474770754 L 50.8526401643541 89.47750143528405 L 50.89100652418837 89.54600950026047 L 50.92387953251129 89.61731656763492 L 50.951056516295154 89.69098300562506 L 50.97236992039768 89.76655463614411 L 50.98768834059514 89.84356553495978 L 50.99691733373313 89.92154090427216 Z" fill-opacity="0"/><path fill="rgb(153,153,153)" stroke="none" paint-order="stroke fill markers" d=" M 151 90 L 150.99691733373314 90.07845909572785 L 150.98768834059513 90.15643446504023 L 150.97236992039768 90.2334453638559 L 150.95105651629515 90.30901699437494 L 150.92387953251128 90.38268343236508 L 150.89100652418836 90.45399049973955 L 150.85264016435409 90.52249856471595 L 150.80901699437496 90.58778525229248 L 150.76040596560003 90.64944804833019 L 150.70710678118655 90.70710678118655 L 150.64944804833019 90.76040596560003 L 150.58778525229246 90.80901699437494 L 150.52249856471596 90.85264016435409 L 150.45399049973955 90.89100652418837 L 150.3826834323651 90.9238795325113 L 150.30901699437496 90.95105651629515 L 150.2334453638559 90.97236992039768 L 150.15643446504023 90.98768834059514 L 150.07845909572785 90.99691733373312 L 150 91 L 149.92154090427215 90.99691733373312 L 149.84356553495977 90.98768834059514 L 149.7665546361441 90.97236992039768 L 149.69098300562504 90.95105651629515 L 149.6173165676349 90.9238795325113 L 149.54600950026045 90.89100652418837 L 149.47750143528404 90.8526401643541 L 149.41221474770754 90.80901699437494 L 149.35055195166981 90.76040596560003 L 149.29289321881345 90.70710678118655 L 149.23959403439997 90.64944804833019 L 149.19098300562504 90.58778525229248 L 149.14735983564591 90.52249856471595 L 149.10899347581164 90.45399049973955 L 149.07612046748872 90.38268343236508 L 149.04894348370485 90.30901699437494 L 149.02763007960232 90.2334453638559 L 149.01231165940487 90.15643446504023 L 149.00308266626686 90.07845909572785 L 149 90 L 149.00308266626686 89.92154090427215 L 149.01231165940487 89.84356553495977 L 149.02763007960232 89.7665546361441 L 149.04894348370485 89.69098300562506 L 149.07612046748872 89.61731656763492 L 149.10899347581164 89.54600950026045 L 149.14735983564591 89.47750143528405 L 149.19098300562504 89.41221474770752 L 149.23959403439997 89.35055195166981 L 149.29289321881345 89.29289321881345 L 149.35055195166981 89.23959403439997 L 149.41221474770754 89.19098300562506 L 149.47750143528404 89.1473598356459 L 149.54600950026045 89.10899347581163 L 149.6173165676349 89.0761204674887 L 149.69098300562504 89.04894348370485 L 149.7665546361441 89.02763007960232 L 149.84356553495977 89.01231165940486 L 149.92154090427215 89.00308266626688 L 150 89 L 150.07845909572785 89.00308266626688 L 150.15643446504023 89.01231165940486 L 150.2334453638559 89.02763007960232 L 150.30901699437496 89.04894348370485 L 150.3826834323651 89.07612046748872 L 150.45399049973955 89.10899347581163 L 150.52249856471596 89.14735983564591 L 150.5877852522925 89.19098300562506 L 150.64944804833019 89.23959403439997 L 150.70710678118655 89.29289321881346 L 150.76040596560003 89.35055195166983 L 150.80901699437496 89.41221474770754 L 150.85264016435409 89.47750143528405 L 150.89100652418838 89.54600950026047 L 150.92387953251128 89.61731656763492 L 150.95105651629515 89.69098300562506 L 150.97236992039768 89.76655463614411 L 150.98768834059513 89.84356553495978 L 150.99691733373314 89.92154090427216 Z" fill-opacity="0"/><g transform="scale(1,1) translate(-16,-16)"/></g></svg>